PathFileType	4	(X/Y/Z)	C:\Users\WrightLab\Desktop\Jo\P3_33.trc
DataRate	CameraRate	NumFrames	NumMarkers	Units	OrigDataRate	OrigDataStartFrame	OrigNumFrames
100.00	100.00	       26	19	mm	100.00	1	       646
Frame#	Time	Headset_Front			Headset_Back			Headset_Left			Headset_Right			Left_Shoulder			Right_Shoulder			Sternum			C7			Left Elbow			Right Elbow			Left Wrist			Right Wrist			Left ASIS			Right ASIS			S2			Left Knee			Right Knee			Left Ankle			Right Ankle			
		X1	Y1	Z1	X2	Y2	Z2	X3	Y3	Z3	X4	Y4	Z4	X5	Y5	Z5	X6	Y6	Z6	X7	Y7	Z7	X8	Y8	Z8	X9	Y9	Z9	X10	Y10	Z10	X11	Y11	Z11	X12	Y12	Z12	X13	Y13	Z13	X14	Y14	Z14	X15	Y15	Z15	X16	Y16	Z16	X17	Y17	Z17	X18	Y18	Z18	X19	Y19	Z19	

1	0.000																-56.11043	1392.85779	2500.30103										18.13150	1052.60327	2572.35303													-246.30965	999.08624	2622.96362	-311.16757	535.13275	2270.04980	-117.60837	485.38538	2533.03857	-325.26431	256.65280	2457.94751	-158.71623	171.20903	2650.90820	
2	0.010																-54.64627	1392.88794	2496.08472										18.85124	1052.66492	2568.50464													-245.62857	998.95673	2618.40674	-309.09311	537.33276	2262.05420	-117.42297	485.38568	2532.35547	-321.55969	252.28299	2443.29468	-158.74455	171.27101	2650.85059	
3	0.020																-53.29954	1392.56750	2491.01343										19.71484	1052.89893	2564.20679													-244.80571	999.08374	2614.45166	-307.45267	538.77667	2256.62280	-117.08691	485.42902	2531.49268	-317.80246	246.92142	2427.43530	-158.68248	171.50282	2650.21484	
4	0.030																-52.33138	1392.20801	2485.41479										19.98040	1052.64758	2560.31812													-243.99080	999.35406	2610.29248	-305.80450	539.45764	2250.95630	-116.90767	484.36804	2528.83081	-313.61307	241.39488	2410.33228	-158.75647	171.50470	2650.12427	
5	0.040																-51.03325	1391.97412	2481.72046										20.79677	1052.37573	2556.42603													-243.54979	998.84595	2605.75098	-303.73895	539.23773	2244.95972	-116.67204	484.25128	2528.06836	-310.00284	236.31728	2393.90674	-158.78711	171.81882	2649.52661	
6	0.050																-50.32751	1391.36829	2476.10107										22.01159	1051.53577	2550.92065													-242.55266	998.91943	2601.76270	-302.42737	539.63855	2238.93140	-116.73871	483.78836	2525.73828	-306.85617	230.54311	2376.74438	-158.85535	171.83667	2649.39795	
7	0.060																-49.36272	1390.95813	2471.53540										22.41031	1051.29199	2547.05688													-241.62352	998.71411	2596.96021	-301.23288	539.76440	2235.24292	-116.82524	483.57037	2523.35791	-304.07446	225.01239	2359.41016	-158.75604	171.92291	2648.97803	
8	0.070																-48.23650	1390.28711	2466.53491										23.37442	1050.19336	2542.31641													-241.29533	998.16266	2592.46509	-298.64227	538.47150	2231.61646	-116.74564	482.89914	2521.64404	-300.85559	219.36263	2340.67896	-158.77975	172.07135	2648.88745	
9	0.080																-47.05423	1389.23132	2460.98535										23.95408	1049.55432	2537.41382													-239.72554	997.42804	2587.60034	-297.86401	537.78040	2225.85303	-115.99031	482.93875	2519.86475	-299.09747	214.00938	2322.62744	-159.20187	171.97836	2647.24878	
10	0.090																-45.73133	1388.37830	2455.54907										24.84006	1048.51575	2532.30908													-239.47104	996.67224	2582.50781	-296.56250	536.07330	2223.51978	-114.90369	480.92023	2517.07129	-295.52103	208.38287	2304.60083	-159.21033	172.22263	2646.90552	
11	0.100																-45.23641	1387.05322	2450.55347										25.34683	1047.44067	2527.27148													-238.67355	996.60974	2578.23267	-295.84506	534.62256	2220.10303	-114.82313	480.79895	2515.67505	-294.35349	203.17490	2286.15747	-158.87926	172.51831	2646.42090	
12	0.110																-44.18599	1386.67322	2445.36426										25.65902	1046.74878	2522.80542													-238.00270	995.34180	2572.64282	-293.94824	531.78552	2218.61572	-113.97462	480.86279	2514.08496	-291.52966	198.81526	2267.82886	-159.49443	173.16316	2645.29980	
13	0.120																-43.42163	1385.28027	2440.03564										26.75803	1045.14783	2516.56567													-237.34630	994.42627	2567.98169	-293.22275	529.16565	2215.42993	-113.40271	480.76263	2512.93701	-289.89456	195.19853	2250.17358	-159.41620	173.40091	2644.80640	
14	0.130																-42.40863	1384.39917	2434.65381										27.37605	1043.82874	2511.15918	-437.86111	848.66699	2312.92139										-237.02454	993.10187	2561.72632	-293.20529	526.72760	2213.32422	-113.03029	480.49707	2510.16504	-287.76120	191.72430	2232.44922	-159.36295	173.42429	2644.79053	
15	0.140																-41.60950	1382.37244	2428.67480										27.55679	1042.86365	2506.27246	-437.76016	847.01758	2307.44727										-236.23254	992.83441	2555.99438	-292.05243	523.01477	2210.66602	-112.28853	479.76569	2507.20825	-285.74191	189.31598	2214.57227	-158.80556	173.77788	2644.62988	
16	0.150																-40.49192	1381.27185	2422.56201										28.13750	1041.03186	2500.32349	-437.29373	845.91064	2303.46436										-235.95352	990.99957	2549.77148	-291.33649	519.84747	2208.90747	-111.54095	478.91495	2505.58447	-283.37888	187.09770	2197.90015	-158.46379	174.19695	2643.63232	
17	0.160																-39.84828	1379.82776	2417.57422				-225.05063	1434.13770	2428.54004				29.07998	1039.48816	2493.93799	-437.04190	844.11768	2297.42456										-235.44966	989.92682	2543.66406	-290.14291	517.55219	2206.88208	-110.95396	478.62589	2503.01904	-281.17035	185.93195	2182.57446	-158.35619	174.23515	2643.58398	
18	0.170																-39.66552	1379.15515	2411.97119				-224.24655	1433.25500	2422.66309				29.17125	1038.48938	2488.67236	-436.54163	842.84521	2292.40845										-234.89571	989.01776	2537.49927	-288.23672	514.23114	2203.35767	-110.46941	478.56622	2499.87036	-279.40860	185.27789	2167.94336	-158.01634	174.47499	2642.97485	
19	0.180																-38.47099	1377.84021	2406.37354				-223.35399	1431.88843	2416.31201				29.53889	1036.89307	2482.39258	-435.92441	841.14667	2286.85938										-234.92104	987.34546	2531.24243	-288.05136	512.82513	2200.47705	-109.44029	477.15424	2497.40771	-277.26999	184.63475	2152.96558	-157.81804	174.81848	2642.26733	
20	0.190																-38.00360	1375.87109	2399.76489				-222.83066	1429.91248	2409.22803				30.09274	1035.14624	2476.15332	-435.43973	839.68860	2281.03442										-234.24457	986.10406	2523.53711	-286.71768	510.28198	2196.43994	-108.29861	476.53094	2494.50781	-275.22943	184.19128	2142.94678	-157.43410	175.42444	2641.29272	
21	0.200																-37.02036	1374.71692	2393.48047				-222.08138	1428.91223	2403.79126				30.15570	1034.12793	2469.95898	-434.52130	838.19995	2275.37256										-234.14362	985.23248	2517.42603	-285.08591	506.72684	2192.49731	-107.54993	476.64777	2492.49561	-272.63486	183.46442	2131.20532	-157.34155	176.30577	2640.39087	
22	0.210																-36.90202	1373.69666	2388.26245				-221.72701	1427.96240	2397.12329				31.00406	1032.36121	2462.68628	-434.12869	836.89612	2268.74072										-233.35167	983.92828	2510.11255	-283.08087	505.82132	2190.93359	-106.70772	476.56934	2489.30298	-271.03207	183.34235	2123.71875	-156.78912	177.01581	2639.48315	
23	0.220																-36.33711	1372.75024	2381.04199				-221.31316	1426.93848	2390.42798				30.90668	1031.28101	2456.92334	-433.24335	835.41144	2262.95801										-233.56421	982.98511	2503.35229	-281.92276	503.56970	2183.33765	-105.84550	475.93982	2486.42993	-267.89658	182.04207	2116.98486	-156.23250	177.72189	2638.91113	
24	0.230																-35.54123	1371.81812	2374.79175				-220.48129	1425.84851	2384.21899				31.48551	1029.95386	2449.56006	-432.86768	834.37653	2256.19507										-233.01366	981.75800	2495.63525	-280.43198	501.58957	2177.08179	-106.24710	475.19730	2480.79346	-265.14008	179.84541	2111.94678	-155.80754	180.06464	2638.35376	
25	0.240																-34.58220	1370.01318	2367.96167				-219.92099	1424.91675	2376.89038				31.71819	1028.97729	2442.79419	-431.43146	832.00800	2252.37769										-232.39772	980.82501	2487.65210	-278.61105	501.06393	2172.65405	-105.23266	475.33923	2478.13306	-262.78448	178.57498	2107.69482	-155.43558	181.38412	2637.55542	
26	0.250																-33.97417	1369.50488	2360.59229				-219.38730	1423.98132	2369.53589				31.92593	1028.21411	2435.54492	-430.50626	831.08807	2245.68945										-231.58655	980.20563	2479.91943	-277.18582	498.54858	2165.54712	-104.93979	475.58276	2472.68408	-260.62573	175.58998	2106.10229	-154.70024	182.28159	2636.33008	
